P3
2
3
255
10
20
30
40
50
60
100
100
100
150
200
250
200
200
200
50
60
70
