P2
64
64
255
96
115
117
117
121
125
126
120
121
128
128
126
125
128
125
120
116
119
115
113
118
125
120
174
191
177
205
222
231
244
237
236
233
217
206
206
243
242
161
158
212
138
130
117
81
66
63
53
47
42
44
39
42
45
40
39
45
44
50
67
56
53
49
47
121
118
121
119
122
126
123
127
125
120
127
127
123
130
124
121
121
117
116
120
117
130
214
216
215
199
177
192
228
227
236
208
219
224
194
182
247
207
147
134
173
143
93
90
117
58
60
55
52
48
45
44
38
43
43
39
38
42
50
61
64
57
52
50
121
122
115
110
119
125
124
127
125
121
126
123
126
125
127
121
125
158
189
151
212
228
239
150
160
180
155
183
210
159
200
198
212
220
230
239
236
181
96
134
138
146
93
86
142
68
52
54
57
51
45
43
43
43
39
41
41
39
42
47
65
67
62
55
120
119
118
114
123
121
125
126
124
123
122
124
126
127
123
136
195
218
240
227
224
191
221
139
136
232
228
232
236
186
165
182
202
233
231
245
209
131
112
137
137
111
90
84
99
70
54
52
54
53
67
77
47
42
46
41
35
37
40
45
46
67
71
61
121
119
118
120
118
120
124
126
125
123
125
122
126
120
131
210
188
178
201
219
189
210
240
211
193
200
227
239
229
141
168
174
186
225
224
220
204
144
162
150
126
164
86
69
85
76
56
53
46
50
41
45
46
44
42
40
37
39
40
41
42
35
60
73
120
119
119
119
119
121
122
126
125
127
119
128
139
178
172
191
197
215
165
185
175
211
221
206
193
193
217
234
214
183
193
187
202
171
148
205
143
148
149
129
112
115
121
123
111
135
105
52
49
48
48
46
44
43
43
42
40
40
39
38
35
32
28
45
119
120
119
118
120
123
122
124
126
124
123
145
200
199
178
171
215
185
190
226
231
195
162
186
181
186
204
219
182
125
193
231
165
124
98
157
142
160
160
174
109
157
157
135
186
231
190
129
57
51
50
39
43
40
42
40
40
40
40
37
34
29
27
24
117
119
120
119
118
123
122
125
128
125
118
184
170
170
180
211
197
231
212
190
204
121
129
169
171
200
166
134
95
75
79
156
173
142
86
65
122
156
195
182
128
141
182
161
162
164
127
169
77
51
54
48
41
40
40
39
38
38
38
37
35
37
31
30
117
118
120
120
119
121
122
124
125
125
118
218
205
231
204
217
195
221
218
206
196
160
137
171
207
208
160
136
114
74
63
58
121
138
80
58
122
101
53
98
153
144
144
151
134
108
94
72
77
51
45
44
41
40
39
38
36
36
35
32
31
32
36
29
116
117
119
121
120
119
122
123
124
126
180
231
227
233
174
149
144
115
105
143
185
230
187
230
240
235
233
165
88
59
54
53
71
84
66
78
113
106
72
75
153
168
148
124
95
77
65
70
72
59
46
43
37
37
38
37
36
36
35
31
36
29
32
31
116
115
117
120
119
119
123
124
128
133
231
203
190
207
171
136
108
95
91
108
125
149
141
186
244
220
235
234
99
58
53
65
86
100
77
139
142
134
73
110
131
155
165
104
60
79
72
73
42
64
36
43
34
33
34
35
36
37
36
32
32
28
35
31
116
115
116
119
121
121
120
127
124
131
203
146
141
161
152
182
162
109
77
79
137
113
66
120
102
177
137
140
203
80
89
89
118
108
61
107
122
109
96
113
112
159
141
106
76
78
72
103
109
129
49
38
35
33
34
33
33
34
33
31
31
30
27
30
118
114
116
121
115
124
119
121
126
137
191
140
109
126
137
151
146
102
103
123
114
98
75
86
104
123
198
159
135
129
104
114
134
68
45
54
92
89
99
163
150
96
87
85
79
84
108
142
88
99
63
39
36
34
37
34
33
33
32
32
30
31
29
30
116
115
117
120
118
118
125
120
118
153
174
190
156
139
120
150
119
100
92
123
120
100
87
66
121
181
171
170
208
154
156
135
126
62
38
69
93
63
59
97
68
37
40
54
60
86
82
117
114
107
63
47
43
34
33
34
33
35
32
30
31
31
30
30
116
116
117
118
121
122
124
121
125
139
129
121
137
148
121
125
118
139
126
122
129
91
88
59
75
115
186
212
166
111
178
95
86
59
50
105
123
58
37
31
35
34
48
58
61
70
95
89
157
114
57
44
44
33
32
34
32
30
31
31
30
30
30
30
117
117
117
117
118
123
125
130
138
130
124
110
144
129
107
113
112
103
111
128
131
85
74
60
98
208
195
83
92
63
173
165
93
66
59
84
130
72
64
41
29
37
42
36
24
17
25
62
93
88
53
40
38
30
33
35
30
31
30
31
30
29
29
29
119
115
116
119
121
123
167
223
232
202
141
134
116
122
105
116
121
122
103
114
127
76
56
77
144
186
83
123
119
79
107
156
144
72
64
55
50
39
58
32
36
23
19
19
21
26
25
23
56
55
56
41
39
32
32
34
32
33
32
29
30
30
30
30
118
115
116
121
118
150
240
247
248
246
232
120
135
121
118
127
112
130
103
89
118
115
157
191
168
91
141
161
87
72
53
54
55
102
117
76
52
36
28
22
13
22
18
23
22
20
21
19
47
81
50
38
40
35
33
30
30
33
30
30
29
29
29
28
118
116
117
120
139
237
204
151
229
252
247
157
147
121
123
141
129
111
98
109
94
158
162
124
131
122
93
89
82
62
48
60
73
107
56
45
39
29
22
18
24
21
17
19
19
21
21
22
45
61
52
39
39
36
33
29
31
31
28
32
29
29
28
27
118
117
117
117
192
251
155
99
241
253
246
199
142
131
133
153
152
114
111
101
93
121
102
100
104
83
82
46
66
56
57
56
47
49
42
38
28
20
22
20
20
18
22
19
22
21
15
16
20
77
103
34
39
32
27
27
36
34
28
31
29
30
29
28
118
117
118
142
219
241
132
117
172
254
251
250
206
122
137
157
178
144
128
117
123
102
97
119
121
79
65
58
67
62
60
61
33
35
35
27
20
17
20
23
19
25
18
19
21
27
112
164
124
113
123
40
32
35
61
107
128
83
30
30
29
27
29
27
117
118
114
187
220
210
168
161
227
238
244
204
229
152
155
167
168
129
131
134
140
114
157
102
94
86
81
71
79
68
69
62
34
29
29
23
67
75
29
25
19
19
20
18
23
26
55
46
124
170
122
117
84
93
108
101
120
90
35
31
32
28
29
30
122
120
137
193
195
137
137
212
238
188
153
106
157
151
150
162
177
136
133
134
135
136
146
130
83
100
84
64
54
69
60
55
43
98
101
138
124
74
30
26
16
21
22
18
21
17
14
52
81
100
121
123
151
101
92
62
79
113
123
75
32
29
32
29
119
122
125
207
223
97
183
177
119
90
111
117
114
145
179
215
194
135
148
140
129
140
86
51
72
76
92
75
62
63
66
64
121
139
154
112
49
52
43
16
23
21
18
16
21
21
110
178
123
82
65
80
67
75
56
47
87
135
129
83
28
54
35
29
116
113
191
196
157
141
98
78
95
88
88
96
116
134
170
146
149
157
159
152
119
91
87
85
82
59
73
77
68
64
65
62
126
151
109
129
46
36
45
21
25
19
21
18
24
21
63
119
93
138
81
48
41
51
72
83
118
124
121
93
83
181
30
28
128
113
177
208
178
142
86
82
85
84
88
92
103
148
135
168
154
148
161
168
135
90
82
83
79
66
65
70
64
60
54
50
63
80
83
60
40
32
39
21
20
21
17
22
16
19
24
31
63
83
69
51
40
63
105
120
111
87
124
74
105
95
32
27
129
165
189
113
120
86
82
87
100
106
115
104
153
205
177
153
222
240
206
189
140
99
85
82
98
79
72
63
65
45
35
39
41
53
54
50
38
40
20
20
20
16
19
19
19
18
20
18
72
56
36
34
36
67
85
88
89
90
82
119
126
94
77
38
128
217
171
79
107
86
78
108
113
103
102
139
218
156
153
210
248
250
224
166
151
76
76
81
81
74
61
46
40
31
39
33
45
41
46
39
47
35
22
18
17
22
18
20
20
23
23
40
124
105
50
46
41
57
75
68
43
46
70
133
109
127
55
31
135
214
120
86
99
101
107
113
117
110
101
142
237
191
178
204
245
253
240
194
149
104
31
47
50
49
37
31
30
44
37
40
44
45
38
45
38
26
15
20
22
18
18
23
21
19
23
40
76
104
84
40
63
98
54
37
45
39
69
139
167
132
140
125
165
124
94
117
100
75
84
99
92
95
70
144
119
143
161
178
208
185
241
196
113
83
81
68
55
40
29
29
33
33
36
38
39
37
32
30
22
18
23
18
19
23
21
19
23
27
20
53
87
51
88
70
79
66
91
46
34
32
41
100
166
127
162
131
138
110
108
101
103
86
78
85
87
81
80
89
111
120
148
134
198
165
189
164
80
92
79
57
49
47
42
34
34
36
36
32
35
26
16
18
20
17
20
22
17
17
22
24
48
44
22
28
64
66
55
71
42
65
70
56
36
27
34
77
147
82
108
125
127
113
92
108
82
92
89
96
82
82
83
92
120
98
129
136
150
129
106
108
88
65
52
51
55
48
43
29
28
39
25
25
21
19
23
20
19
22
15
19
20
26
21
65
225
226
168
29
31
49
50
65
53
59
81
55
47
58
88
129
126
165
56
84
122
102
96
108
83
86
90
96
75
83
79
84
88
106
115
108
141
129
110
89
82
63
51
53
53
46
43
29
54
85
28
20
20
17
15
19
17
21
20
20
19
22
19
106
155
102
183
140
54
54
117
95
55
72
125
171
195
246
247
241
251
241
115
36
161
134
93
102
111
77
71
72
88
83
81
78
84
109
130
112
115
111
103
97
73
51
49
50
44
42
48
83
89
98
30
24
17
19
22
17
20
19
21
21
18
21
24
54
76
50
73
141
122
182
229
228
223
223
234
215
247
221
187
118
173
166
172
55
204
130
108
115
94
109
84
88
99
83
85
74
98
141
154
118
104
97
99
100
68
49
44
43
44
45
92
104
95
78
22
17
22
19
17
17
18
23
19
20
22
32
30
15
71
49
73
164
196
126
155
206
189
205
191
190
161
106
92
119
66
70
78
47
191
118
113
124
115
95
102
109
82
93
97
97
132
209
107
107
116
104
100
80
75
78
56
39
46
86
111
101
91
44
18
20
23
21
21
18
21
21
19
21
19
18
23
95
249
133
176
175
114
108
48
81
154
189
152
113
86
75
32
87
120
135
70
31
150
137
143
132
131
87
96
106
95
92
87
95
188
129
99
103
99
101
85
66
58
87
122
116
93
130
113
82
69
37
21
21
18
16
19
22
19
19
21
21
18
25
22
128
223
148
206
134
121
77
40
109
101
67
55
71
99
97
66
76
87
152
202
59
122
122
148
134
122
109
108
112
92
93
93
87
112
90
101
91
90
96
85
61
82
164
162
119
157
127
113
65
43
25
19
20
21
20
17
18
20
22
31
21
19
22
55
186
170
113
89
150
88
55
51
49
45
57
85
70
133
127
53
109
93
106
158
77
202
107
128
129
128
115
97
110
109
88
82
88
110
99
92
84
85
83
93
88
73
95
115
177
134
158
128
59
27
19
17
18
18
19
17
17
18
19
20
22
25
17
130
250
168
195
130
52
40
36
47
49
43
83
33
52
52
45
103
134
121
156
196
151
165
111
65
112
119
119
101
97
100
98
93
86
93
106
87
85
61
99
92
79
76
68
131
170
127
106
94
77
25
22
19
18
17
18
17
18
21
19
20
23
23
53
211
194
84
111
93
37
49
39
34
37
65
49
30
27
44
34
27
55
119
146
236
235
184
122
73
71
121
118
119
116
97
96
109
93
86
99
104
84
91
119
81
64
58
64
94
85
98
140
99
70
25
19
19
19
19
19
17
19
15
23
19
22
17
123
219
157
186
68
46
44
40
35
31
42
80
32
27
27
42
33
30
36
116
205
197
163
212
143
77
99
121
130
127
145
115
126
139
127
128
145
103
111
107
104
95
79
62
66
87
59
56
101
89
75
30
20
18
19
20
20
19
20
23
20
19
26
16
160
92
150
58
49
34
39
40
25
29
35
47
60
36
34
36
34
24
31
53
179
138
121
97
88
98
106
134
128
133
133
138
125
139
131
144
128
124
145
111
84
93
88
70
79
80
91
78
91
86
61
35
21
18
20
18
19
19
19
19
21
15
30
29
177
120
110
104
56
48
42
29
23
24
31
35
65
63
43
27
28
26
28
46
166
218
201
51
83
75
114
134
125
126
134
123
134
130
139
138
142
129
115
97
100
117
95
66
71
73
75
84
88
73
61
33
20
20
21
20
21
20
17
20
20
18
34
125
173
145
90
106
112
58
59
39
29
20
27
36
44
46
34
32
26
31
37
54
98
160
184
63
91
82
112
121
102
121
122
153
124
145
158
118
118
105
121
108
119
99
85
66
69
61
71
78
79
73
61
29
20
29
39
32
23
26
19
21
21
46
71
150
154
128
165
190
103
74
47
39
36
26
26
28
37
34
26
32
27
38
45
48
60
96
169
76
60
86
123
119
111
119
125
136
149
165
206
154
113
110
111
92
112
104
92
40
57
63
49
53
71
59
30
26
25
40
35
25
19
23
21
20
21
17
42
143
80
165
161
210
175
110
70
45
35
28
22
32
29
29
29
35
38
46
47
54
72
219
215
109
95
122
132
138
131
150
138
113
160
129
121
157
129
133
139
118
110
105
87
68
63
53
50
57
66
40
33
28
29
39
27
20
22
21
21
22
26
23
24
44
110
143
174
199
126
98
54
46
32
24
33
29
30
33
36
40
36
52
55
53
183
253
219
119
123
125
122
133
129
124
118
99
142
116
61
119
149
161
150
194
158
107
78
52
55
50
44
56
38
49
32
35
31
32
21
21
25
22
20
21
20
23
22
34
79
187
200
196
200
156
82
73
53
50
43
34
41
39
35
39
38
53
104
214
244
241
237
89
128
144
190
154
143
134
110
98
84
97
126
109
126
166
137
160
227
213
179
187
90
53
48
47
42
35
39
33
32
30
24
24
20
21
22
19
25
22
29
29
98
159
212
243
227
204
160
143
110
90
72
54
49
60
38
39
98
206
242
249
237
227
195
108
140
141
171
139
135
101
67
67
80
47
107
85
89
116
113
125
181
233
209
253
222
122
41
40
36
39
36
26
26
28
27
28
20
22
22
26
19
27
27
36
151
229
234
250
250
248
231
219
159
121
133
103
63
45
43
95
231
250
248
250
228
148
88
134
102
129
92
94
105
68
84
48
104
56
33
48
107
103
139
106
189
181
196
160
208
252
201
76
73
46
34
23
23
28
26
25
24
23
21
21
26
26
31
49
191
205
235
252
249
252
248
147
92
133
178
97
75
51
52
211
236
238
247
193
134
88
86
97
105
68
70
86
79
47
60
45
36
30
41
62
104
92
97
113
132
129
121
155
209
229
219
98
72
45
31
26
27
36
26
20
24
23
22
27
26
39
38
35
178
208
226
237
250
251
252
164
116
163
110
76
77
84
177
249
204
202
155
138
121
57
44
60
109
109
68
74
58
60
49
29
29
25
32
61
101
122
135
113
165
154
183
224
226
176
124
144
114
40
31
24
38
30
28
26
23
27
23
23
26
48
89
143
218
209
209
196
222
237
251
194
128
166
110
64
130
232
249
191
121
96
69
46
39
39
32
76
80
108
81
48
89
115
73
20
30
25
34
43
90
95
94
146
138
151
104
61
131
136
99
117
114
31
32
30
24
25
22
24
27
30
56
149
131
243
252
248
242
235
230
226
213
202
201
214
174
164
118
125
244
237
215
122
88
63
44
40
36
39
37
72
77
127
104
66
122
112
106
81
65
28
36
44
85
68
76
111
171
123
76
121
116
104
126
133
103
30
28
26
31
24
27
25
25
30
31
176
217
236
205
223
213
204
183
162
150
194
180
175
203
137
92
171
219
216
97
65
50
31
38
36
35
42
54
54
77
100
115
128
135
116
107
134
76
33
45
47
79
86
82
92
76
142
97
90
106
92
114
94
59
30
30
31
28
31
31
34
27
25
42
168
175
143
140
115
144
152
121
71
124
157
90
91
89
80
169
186
111
98
52
44
47
37
36
32
35
40
54
39
46
98
92
113
116
97
108
87
85
173
131
59
76
71
80
73
88
76
46
81
85
88
97
66
45
60
41
26
42
45
28
35
30
28
41
134
111
107
93
108
141
151
98
50
53
79
62
61
91
188
215
117
61
77
59
50
41
39
45
42
32
54
64
31
53
116
105
107
146
106
75
93
110
118
138
88
75
97
93
102
50
59
61
59
54
58
76
160
78
90
102
145
163
168
106
52
28
33
45
123
88
52
59
109
139
82
62
53
47
76
51
52
160
200
115
86
70
51
55
88
55
54
43
37
43
69
183
61
125
114
135
106
127
87
66
84
141
115
104
54
49
90
105
130
25
33
38
40
44
57
193
244
211
156
175
199
171
146
139
95
51
52
52
108
113
67
41
48
64
56
54
48
41
103
59
90
190
158
145
99
68
74
61
80
93
63
61
52
58
72
135
124
125
127
164
146
104
101
66
75
109
113
86
65
69
97
123
92
33
33
31
33
72
176
232
250
249
252
250
222
202
169
143
100
68
61
86
118
61
68
52
54
39
49
54
52
34
112
87
149
236
141
79
52
46
63
64
62
60
33
51
45
36
112
63
177
171
132
105
124
83
81
63
99
92
103
58
37
54
90
61
67
73
51
66
84
117
178
234
245
234
238
242
232
219
193
154
131
101
73
164
136
55
79
47
45
44
46
53
55
83
150
187
219
226
148
60
42
50
54
58
73
54
45
55
50
44
171
179
211
155
172
146
84
72
75
91
141
62
62
40
36
41
111
131
147
96
126
142
140
127
161
111
129
169
176
177
173
237
193
189
178
135
177
226
146
80
39
40
33
40
55
73
86
51
78
200
140
87
64
47
36
40
49
80
61
59
95
76
62
62
49
117
107
101
134
156
126
56
61
89
69
55
56
48
45
63
57
135
187
149
119
128
144
132
138
139
73
50
142
95
110
208
218
190
187
239
253
252
205
120
57
53
55
41
53
65
74
66
102
134
51
54
53
123
85
49
63
84
84
59
172
212
166
56
56
76
112
107
101
106
101
47
50
110
73
40
45
57
103
128
176
178
154
139
121
131
128
151
102
65
63
56
141
91
110
198
220
220
233
249
249
248
227
126
63
57
57
55
52
43
49
55
111
79
55
42
44
49
73
63
70
65
68
59
71
135
160
193
90
47
