P2
2
3
255
18
48
100
190
200
58
