P3
64
64
255
255
255
255
255
255
255
255
255
255
255
255
255
255
255
255
255
255
255
255
255
255
255
255
255
255
255
255
255
255
255
255
255
255
255
255
255
255
255
255
255
255
255
255
255
255
255
255
255
255
255
255
255
255
255
253
253
253
254
254
254
255
255
255
255
255
255
255
255
255
244
246
249
226
236
247
200
218
236
184
207
231
166
196
225
156
189
222
142
180
217
139
178
216
139
178
216
172
172
172
181
181
181
189
189
189
202
202
202
216
216
216
237
237
237
247
247
247
255
255
255
255
255
255
255
255
255
253
253
253
254
254
254
255
255
255
255
255
255
255
255
255
255
255
255
255
255
255
255
255
255
255
255
255
255
255
255
255
255
255
255
255
255
255
255
255
255
255
255
255
255
255
255
255
255
255
255
255
255
255
255
255
255
255
255
255
255
255
255
255
255
255
255
255
255
255
255
255
255
255
255
255
255
255
255
255
255
255
255
255
255
255
255
255
255
255
255
255
255
255
255
255
255
255
255
255
255
255
255
255
255
255
255
255
255
255
255
255
255
255
255
254
254
254
254
254
254
255
255
255
255
255
255
242
246
250
210
225
240
175
205
235
140
181
221
119
164
209
109
158
206
102
153
204
102
153
204
102
153
204
102
153
204
102
153
204
102
153
204
143
143
143
143
143
143
143
143
143
143
143
143
148
148
148
156
156
156
176
176
176
203
203
203
226
226
226
248
248
248
255
255
255
255
255
255
253
253
253
254
254
254
255
255
255
255
255
255
255
255
255
255
255
255
255
255
255
255
255
255
255
255
255
255
255
255
255
255
255
255
255
255
255
255
255
255
255
255
255
255
255
255
255
255
255
255
255
255
255
255
255
255
255
255
255
255
255
255
255
255
255
255
255
255
255
255
255
255
255
255
255
255
255
255
255
255
255
255
255
255
255
255
255
255
255
255
255
255
255
255
255
255
255
255
255
255
255
255
255
255
255
254
254
254
255
255
255
255
255
255
236
242
247
189
214
239
137
177
219
107
156
206
100
150
200
101
152
203
102
153
204
102
153
204
102
153
204
103
153
204
103
153
204
103
153
204
103
153
204
103
153
204
143
143
143
143
143
143
143
143
143
143
143
143
143
143
143
143
143
143
142
142
142
141
141
141
151
151
151
179
179
179
214
214
214
245
245
245
255
255
255
255
255
255
253
253
253
255
255
255
255
255
255
255
255
255
255
255
255
255
255
255
255
255
255
255
255
255
255
255
255
255
255
255
255
255
255
255
255
255
255
255
255
255
255
255
255
255
255
255
255
255
255
255
255
255
255
255
255
255
255
255
255
255
255
255
255
255
255
255
255
255
255
255
255
255
255
255
255
255
255
255
255
255
255
255
255
255
255
255
255
255
255
255
255
255
255
255
255
255
253
253
253
255
255
255
249
250
252
199
221
243
132
174
215
100
150
200
101
152
203
101
152
203
103
152
203
104
153
204
104
154
205
103
154
204
103
154
204
103
154
204
103
153
204
102
153
204
102
153
204
102
153
204
143
143
143
143
143
143
143
143
143
143
143
143
143
143
143
143
143
143
144
144
144
144
144
144
143
143
143
141
141
141
140
140
140
171
171
171
221
221
221
250
250
250
255
255
255
253
253
253
255
255
255
255
255
255
255
255
255
255
255
255
255
255
255
255
255
255
255
255
255
255
255
255
255
255
255
255
255
255
255
255
255
255
255
255
255
255
255
255
255
255
255
255
255
255
255
255
255
255
255
255
255
255
255
255
255
255
255
255
255
255
255
255
255
255
255
255
255
255
255
255
255
255
255
255
255
255
255
255
255
255
255
255
255
255
255
254
254
254
255
255
255
234
241
249
159
193
229
98
147
196
100
150
200
100
150
200
102
153
204
104
155
207
106
156
208
103
155
207
100
150
201
100
150
200
101
151
202
102
153
204
102
153
204
103
154
204
103
153
204
102
153
204
143
143
143
143
143
143
143
143
143
143
143
143
143
143
143
143
143
143
143
143
143
143
143
143
143
143
143
144
144
144
143
143
143
142
142
142
142
142
142
190
190
190
238
238
238
255
255
255
253
253
253
254
254
254
255
255
255
255
255
255
255
255
255
255
255
255
255
255
255
255
255
255
255
255
255
255
255
255
255
255
255
255
255
255
255
255
255
255
255
255
255
255
255
255
255
255
255
255
255
255
255
255
255
255
255
255
255
255
255
255
255
255
255
255
255
255
255
255
255
255
255
255
255
255
255
255
255
255
255
255
255
255
255
255
255
254
254
254
214
228
242
131
172
213
111
158
205
140
182
223
167
200
234
187
214
240
194
215
236
199
216
233
202
218
235
193
212
231
190
214
239
171
203
236
145
185
225
119
166
211
101
151
202
101
152
202
102
153
204
103
153
204
143
143
143
143
143
143
143
143
143
143
143
143
143
143
143
143
143
143
143
143
143
143
143
143
143
143
143
143
143
143
143
143
143
144
144
144
143
143
143
141
141
141
163
163
163
227
227
227
255
255
255
254
254
254
255
255
255
255
255
255
255
255
255
255
255
255
255
255
255
255
255
255
255
255
255
255
255
255
255
255
255
255
255
255
255
255
255
255
255
255
255
255
255
255
255
255
255
255
255
255
255
255
255
255
255
255
255
255
255
255
255
255
255
255
255
255
255
255
255
255
255
255
255
255
255
255
255
255
255
254
254
254
255
255
255
243
245
246
181
215
247
182
208
233
224
234
245
245
247
249
253
254
254
255
255
255
255
255
255
255
255
255
255
255
255
255
255
255
255
255
255
253
254
254
245
247
249
226
235
245
191
214
237
141
181
221
101
152
203
102
153
204
143
143
143
143
143
143
143
143
143
143
143
143
143
143
143
143
143
143
143
143
143
143
143
143
143
143
143
143
143
143
143
143
143
143
143
143
143
143
143
144
144
144
143
143
143
149
149
149
217
217
217
254
254
254
254
254
254
254
254
254
255
255
255
255
255
255
255
255
255
255
255
255
255
255
255
255
255
255
255
255
255
255
255
255
255
255
255
255
255
255
255
255
255
255
255
255
255
255
255
255
255
255
255
255
255
255
255
255
255
255
255
255
255
255
255
255
255
255
255
255
255
255
255
255
255
255
255
255
255
255
255
255
255
255
255
251
252
252
246
247
248
255
255
255
255
255
255
255
255
255
253
253
253
251
251
251
252
252
252
253
253
253
255
255
255
255
255
255
255
255
255
255
255
255
255
255
255
255
255
255
255
255
255
252
253
254
199
219
239
125
168
210
143
143
143
143
143
143
143
143
143
143
143
143
143
143
143
143
143
143
143
143
143
143
143
143
143
143
143
143
143
143
143
143
143
143
143
143
143
143
143
143
143
143
144
144
144
143
143
143
145
145
145
213
213
213
255
255
255
254
254
254
254
254
254
255
255
255
255
255
255
255
255
255
255
255
255
255
255
255
255
255
255
255
255
255
255
255
255
255
255
255
255
255
255
255
255
255
255
255
255
255
255
255
255
255
255
255
255
255
255
255
255
255
255
255
255
255
255
255
255
255
255
255
255
255
255
255
255
255
255
255
255
255
255
255
255
254
254
254
255
255
255
253
253
253
255
255
255
255
255
255
255
255
255
255
255
255
255
255
255
253
254
254
249
250
251
238
244
249
224
234
243
211
225
239
205
220
236
196
213
231
186
204
223
192
210
229
197
217
236
151
185
220
143
143
143
143
143
143
143
143
143
143
143
143
144
144
144
144
144
144
144
144
144
144
144
144
143
143
143
143
143
143
143
143
143
143
143
143
143
143
143
143
143
143
143
143
143
144
144
144
143
143
143
146
146
146
221
221
221
255
255
255
254
254
254
255
255
255
255
255
255
255
255
255
255
255
255
255
255
255
255
255
255
255
255
255
255
255
255
255
255
255
255
255
255
255
255
255
255
255
255
255
255
255
255
255
255
255
255
255
255
255
255
255
255
255
255
255
255
255
255
255
255
255
255
255
255
255
254
254
254
253
253
253
254
254
254
255
255
255
255
255
255
255
255
255
249
250
252
231
239
247
212
225
238
197
219
241
176
206
236
157
194
232
134
178
222
120
165
211
113
162
210
107
157
208
105
157
207
104
156
208
105
158
211
104
156
208
102
153
203
102
153
204
143
143
143
143
143
143
143
143
143
143
143
143
143
143
143
143
143
143
143
143
143
143
143
143
143
143
143
143
143
143
143
143
143
143
143
143
144
144
144
144
144
144
143
143
143
143
143
143
144
144
144
143
143
143
155
155
155
231
231
231
255
255
255
254
254
254
255
255
255
255
255
255
255
255
255
255
255
255
255
255
255
255
255
255
255
255
255
255
255
255
255
255
255
255
255
255
255
255
255
255
255
255
255
255
255
255
255
255
255
255
255
255
255
255
255
255
255
255
255
255
255
255
255
253
253
253
255
255
255
255
255
255
255
255
255
238
243
248
210
225
241
178
208
238
140
181
222
119
164
211
106
156
208
100
150
201
102
152
201
114
159
205
126
168
211
137
176
216
149
184
219
161
192
223
175
201
228
181
205
230
188
210
232
200
218
237
200
219
237
200
218
237
214
214
214
206
206
206
200
200
200
197
197
197
188
188
188
180
180
180
171
171
171
163
163
163
155
155
155
145
145
145
143
143
143
143
143
143
143
143
143
143
143
143
143
143
143
144
144
144
144
144
144
144
144
144
142
142
142
169
169
169
243
243
243
255
255
255
254
254
254
255
255
255
255
255
255
255
255
255
255
255
255
255
255
255
255
255
255
255
255
255
255
255
255
255
255
255
255
255
255
255
255
255
255
255
255
255
255
255
255
255
255
255
255
255
255
255
255
255
255
255
255
255
255
255
255
255
252
252
253
219
232
245
171
203
235
128
171
215
102
153
204
102
152
201
121
164
209
147
183
219
178
203
229
204
221
238
222
233
244
235
241
248
247
250
252
255
255
255
255
255
255
255
255
255
255
255
255
253
253
254
254
254
255
253
254
254
247
249
252
247
250
252
253
253
253
254
254
254
252
252
252
255
255
255
255
255
255
255
255
255
255
255
255
246
246
246
237
237
237
226
226
226
212
212
212
193
193
193
173
173
173
158
158
158
145
145
145
143
143
143
143
143
143
143
143
143
145
145
145
140
140
140
198
198
198
254
254
254
254
254
254
254
254
254
255
255
255
255
255
255
255
255
255
255
255
255
255
255
255
255
255
255
255
255
255
255
255
255
255
255
255
255
255
255
255
255
255
255
255
255
255
255
255
255
255
255
255
255
255
254
254
254
254
254
254
220
233
246
156
192
228
105
153
203
102
151
201
135
174
214
181
206
230
217
230
242
247
249
252
255
255
255
250
251
253
244
247
251
232
240
247
212
226
241
191
212
233
176
202
228
166
196
225
161
192
224
152
187
221
148
183
219
149
184
220
143
180
218
127
168
209
128
169
211
172
172
172
177
177
177
176
176
176
181
181
181
188
188
188
195
195
195
204
204
204
215
215
215
230
230
230
242
242
242
248
248
248
253
253
253
255
255
255
241
241
241
222
222
222
197
197
197
167
167
167
147
147
147
143
143
143
143
143
143
150
150
150
228
228
228
255
255
255
253
253
253
255
255
255
255
255
255
255
255
255
255
255
255
255
255
255
255
255
255
255
255
255
255
255
255
255
255
255
255
255
255
255
255
255
255
255
255
255
255
255
255
255
255
254
254
254
255
255
255
210
229
247
107
154
201
107
155
203
163
193
224
219
231
243
251
252
254
248
251
253
229
237
246
191
213
234
164
194
225
145
182
218
126
169
212
110
158
207
108
156
204
133
177
221
142
183
223
106
154
201
101
151
201
100
150
201
100
150
200
100
150
200
119
163
207
171
203
235
169
199
231
155
155
155
140
140
140
140
140
140
140
140
140
141
141
141
141
141
141
142
142
142
143
143
143
147
147
147
153
153
153
166
166
166
180
180
180
197
197
197
219
219
219
240
240
240
250
250
250
250
250
250
227
227
227
192
192
192
159
159
159
140
140
140
182
182
182
250
250
250
255
255
255
254
254
254
255
255
255
255
255
255
255
255
255
255
255
255
255
255
255
255
255
255
255
255
255
255
255
255
255
255
255
255
255
255
255
255
255
255
255
255
254
254
254
255
255
255
249
250
251
151
190
228
130
171
212
219
231
243
252
253
254
223
233
244
179
204
230
137
176
216
112
159
207
128
170
212
127
169
212
100
150
200
101
152
202
101
152
202
137
180
223
225
231
237
246
248
250
189
216
243
148
187
226
164
198
232
167
201
234
165
200
234
209
226
243
255
255
255
255
255
255
227
227
227
200
200
200
201
201
201
194
194
194
189
189
189
181
181
181
165
165
165
148
148
148
143
143
143
143
143
143
143
143
143
143
143
143
143
143
143
145
145
145
153
153
153
172
172
172
200
200
200
230
230
230
251
251
251
241
241
241
195
195
195
154
154
154
223
223
223
255
255
255
253
253
253
255
255
255
255
255
255
255
255
255
255
255
255
255
255
255
255
255
255
255
255
255
255
255
255
255
255
255
255
255
255
255
255
255
255
255
255
254
254
254
255
255
255
242
244
246
193
220
247
235
241
247
248
251
253
164
194
225
113
160
208
102
153
204
102
153
204
113
161
210
221
233
246
233
240
248
171
204
236
181
208
234
201
218
235
232
241
250
255
255
255
255
255
255
255
255
255
251
252
252
253
253
253
254
254
254
255
255
255
255
255
255
254
254
254
254
254
254
255
255
255
255
255
255
255
255
255
255
255
255
255
255
255
253
253
253
245
245
245
237
237
237
214
214
214
190
190
190
161
161
161
140
140
140
143
143
143
143
143
143
143
143
143
143
143
143
143
143
143
149
149
149
178
178
178
235
235
235
255
255
255
216
216
216
230
230
230
255
255
255
254
254
254
255
255
255
255
255
255
255
255
255
255
255
255
255
255
255
255
255
255
255
255
255
255
255
255
255
255
255
255
255
255
255
255
255
255
255
255
255
255
255
255
255
255
254
254
254
254
254
254
255
255
255
229
237
246
128
171
214
176
202
228
172
200
227
168
197
226
209
224
239
250
250
251
255
255
255
255
255
255
255
255
255
233
241
249
213
227
241
213
227
241
212
225
237
209
220
232
226
235
243
254
254
254
255
255
255
255
255
255
254
254
254
255
255
255
255
255
255
254
254
254
253
253
253
253
253
253
255
255
255
240
240
240
219
219
219
223
223
223
228
228
228
228
228
228
227
227
227
235
235
235
212
212
212
168
168
168
143
143
143
143
143
143
144
144
144
144
144
144
143
143
143
140
140
140
213
213
213
254
254
254
255
255
255
254
254
254
255
255
255
255
255
255
255
255
255
255
255
255
255
255
255
255
255
255
255
255
255
255
255
255
255
255
255
255
255
255
255
255
255
255
255
255
255
255
255
255
255
255
255
255
255
255
255
255
255
255
255
254
254
254
254
254
254
252
253
253
212
227
243
244
247
251
255
255
255
255
255
255
255
255
255
255
255
255
254
254
254
254
254
254
253
253
253
176
208
239
114
159
204
115
162
209
112
162
212
107
158
208
166
203
239
253
253
253
254
254
254
254
254
254
255
255
255
255
255
255
255
255
255
255
255
255
255
255
255
253
253
253
255
255
255
214
214
214
162
162
162
154
154
154
148
148
148
146
146
146
167
167
167
243
243
243
255
255
255
243
243
243
195
195
195
149
149
149
143
143
143
144
144
144
142
142
142
166
166
166
239
239
239
255
255
255
252
252
252
255
255
255
255
255
255
255
255
255
255
255
255
255
255
255
255
255
255
255
255
255
255
255
255
255
255
255
255
255
255
255
255
255
255
255
255
255
255
255
255
255
255
255
255
255
255
255
255
255
255
255
255
255
255
255
255
255
255
255
255
255
255
255
227
238
249
197
215
234
202
219
237
203
220
237
200
219
238
219
233
248
253
253
254
254
254
254
255
255
255
233
240
248
166
195
225
107
155
205
102
152
203
109
156
205
206
223
239
255
255
255
254
254
254
255
255
255
255
255
255
255
255
255
255
255
255
255
255
255
255
255
255
255
255
255
255
255
255
245
245
245
205
205
205
152
152
152
143
143
143
140
140
140
202
202
202
253
253
253
251
251
251
255
255
255
233
233
233
153
153
153
143
143
143
144
144
144
140
140
140
181
181
181
245
245
245
255
255
255
254
254
254
255
255
255
255
255
255
255
255
255
255
255
255
255
255
255
255
255
255
255
255
255
255
255
255
255
255
255
255
255
255
255
255
255
255
255
255
255
255
255
255
255
255
255
255
255
255
255
255
255
255
255
255
255
255
255
255
255
254
254
254
255
255
255
186
213
240
118
162
206
109
157
206
104
154
205
101
150
201
157
190
223
251
252
254
254
254
254
255
255
255
244
245
247
146
188
229
100
150
200
103
152
203
115
162
212
221
231
241
255
255
255
253
253
253
255
255
255
255
255
255
255
255
255
255
255
255
255
255
255
255
255
255
255
255
255
255
255
255
255
255
255
200
200
200
140
140
140
144
144
144
145
145
145
207
207
207
255
255
255
251
251
251
254
254
254
223
223
223
161
161
161
150
150
150
143
143
143
140
140
140
177
177
177
242
242
242
255
255
255
254
254
254
255
255
255
255
255
255
255
255
255
255
255
255
255
255
255
255
255
255
255
255
255
255
255
255
255
255
255
255
255
255
255
255
255
255
255
255
255
255
255
255
255
255
255
255
255
255
255
255
255
255
255
255
255
255
255
255
255
254
254
254
255
255
255
242
246
251
173
200
227
109
156
205
102
152
203
107
156
206
213
228
242
255
255
255
252
252
252
255
255
255
237
239
241
138
183
228
100
150
200
102
152
203
114
162
210
218
229
241
255
255
255
253
253
253
255
255
255
255
255
255
255
255
255
255
255
255
255
255
255
255
255
255
254
254
254
255
255
255
253
253
253
194
194
194
140
140
140
143
143
143
145
145
145
204
204
204
255
255
255
252
252
252
255
255
255
251
251
251
215
215
215
153
153
153
142
142
142
142
142
142
204
204
204
255
255
255
254
254
254
255
255
255
255
255
255
255
255
255
255
255
255
255
255
255
255
255
255
255
255
255
255
255
255
255
255
255
255
255
255
255
255
255
255
255
255
255
255
255
255
255
255
255
255
255
255
255
255
255
255
255
255
255
255
255
255
255
255
255
255
254
254
254
255
255
255
243
246
250
138
178
219
102
152
203
103
152
203
111
160
210
225
234
243
255
255
255
252
252
252
255
255
255
238
240
242
140
184
228
100
150
200
102
152
203
114
162
210
218
230
241
255
255
255
253
253
253
255
255
255
255
255
255
255
255
255
255
255
255
255
255
255
255
255
255
254
254
254
255
255
255
254
254
254
195
195
195
140
140
140
143
143
143
145
145
145
204
204
204
255
255
255
252
252
252
254
254
254
255
255
255
195
195
195
140
140
140
143
143
143
145
145
145
201
201
201
255
255
255
253
253
253
255
255
255
255
255
255
255
255
255
255
255
255
255
255
255
255
255
255
255
255
255
255
255
255
255
255
255
255
255
255
255
255
255
255
255
255
255
255
255
255
255
255
255
255
255
255
255
255
255
255
255
255
255
255
255
255
255
255
255
255
254
254
254
255
255
255
239
244
249
135
175
217
102
152
203
102
152
203
111
159
209
223
233
242
255
255
255
252
252
252
255
255
255
238
240
242
140
184
228
100
150
200
102
152
203
114
162
210
218
230
241
255
255
255
253
253
253
255
255
255
255
255
255
255
255
255
255
255
255
255
255
255
255
255
255
254
254
254
255
255
255
254
254
254
195
195
195
140
140
140
143
143
143
145
145
145
204
204
204
255
255
255
252
252
252
254
254
254
255
255
255
195
195
195
140
140
140
143
143
143
145
145
145
202
202
202
255
255
255
253
253
253
255
255
255
255
255
255
255
255
255
255
255
255
255
255
255
255
255
255
255
255
255
255
255
255
255
255
255
255
255
255
255
255
255
255
255
255
255
255
255
255
255
255
255
255
255
255
255
255
255
255
255
255
255
255
255
255
255
255
255
255
254
254
254
255
255
255
240
244
249
135
176
217
102
152
203
102
152
203
111
159
209
223
233
243
255
255
255
252
252
252
255
255
255
238
240
242
140
184
228
100
150
200
102
152
203
114
162
210
218
230
241
255
255
255
253
253
253
255
255
255
255
255
255
255
255
255
255
255
255
255
255
255
255
255
255
254
254
254
255
255
255
254
254
254
195
195
195
140
140
140
143
143
143
145
145
145
204
204
204
255
255
255
252
252
252
254
254
254
255
255
255
195
195
195
140
140
140
143
143
143
145
145
145
202
202
202
255
255
255
253
253
253
255
255
255
255
255
255
255
255
255
255
255
255
255
255
255
255
255
255
255
255
255
255
255
255
255
255
255
255
255
255
255
255
255
255
255
255
255
255
255
255
255
255
255
255
255
255
255
255
255
255
255
255
255
255
255
255
255
255
255
255
254
254
254
255
255
255
240
244
249
135
176
217
102
152
203
102
152
203
111
159
209
223
233
243
255
255
255
252
252
252
255
255
255
238
240
242
140
184
228
100
150
200
102
152
203
114
162
210
218
230
241
255
255
255
253
253
253
255
255
255
255
255
255
255
255
255
255
255
255
255
255
255
255
255
255
254
254
254
255
255
255
254
254
254
195
195
195
140
140
140
143
143
143
145
145
145
204
204
204
255
255
255
252
252
252
254
254
254
255
255
255
195
195
195
140
140
140
143
143
143
145
145
145
202
202
202
255
255
255
253
253
253
255
255
255
255
255
255
255
255
255
255
255
255
255
255
255
255
255
255
255
255
255
255
255
255
255
255
255
255
255
255
255
255
255
255
255
255
255
255
255
255
255
255
255
255
255
255
255
255
255
255
255
255
255
255
255
255
255
255
255
255
254
254
254
255
255
255
240
244
249
135
176
217
102
152
203
102
152
203
111
159
209
223
233
243
255
255
255
252
252
252
255
255
255
238
240
242
140
184
228
100
150
200
102
152
203
114
162
210
218
230
241
255
255
255
253
253
253
255
255
255
255
255
255
255
255
255
255
255
255
255
255
255
255
255
255
254
254
254
255
255
255
254
254
254
195
195
195
140
140
140
143
143
143
145
145
145
204
204
204
255
255
255
252
252
252
254
254
254
255
255
255
195
195
195
140
140
140
143
143
143
145
145
145
202
202
202
255
255
255
253
253
253
255
255
255
255
255
255
255
255
255
255
255
255
255
255
255
255
255
255
255
255
255
255
255
255
255
255
255
255
255
255
255
255
255
255
255
255
255
255
255
255
255
255
255
255
255
255
255
255
255
255
255
255
255
255
255
255
255
255
255
255
254
254
254
255
255
255
240
244
249
135
176
217
102
152
203
102
152
203
111
159
209
223
233
243
255
255
255
252
252
252
255
255
255
238
240
242
140
184
228
100
150
200
102
152
203
114
162
210
218
230
241
255
255
255
253
253
253
255
255
255
255
255
255
255
255
255
255
255
255
255
255
255
255
255
255
254
254
254
255
255
255
254
254
254
195
195
195
140
140
140
143
143
143
145
145
145
204
204
204
255
255
255
252
252
252
254
254
254
255
255
255
195
195
195
140
140
140
143
143
143
145
145
145
202
202
202
255
255
255
253
253
253
255
255
255
255
255
255
255
255
255
255
255
255
255
255
255
255
255
255
255
255
255
255
255
255
255
255
255
255
255
255
255
255
255
255
255
255
255
255
255
255
255
255
255
255
255
255
255
255
255
255
255
255
255
255
255
255
255
255
255
255
254
254
254
255
255
255
240
244
249
135
176
217
102
152
203
102
152
203
111
159
209
223
233
243
255
255
255
252
252
252
255
255
255
238
240
242
140
184
228
100
150
200
102
152
203
114
162
210
218
230
241
255
255
255
253
253
253
255
255
255
255
255
255
255
255
255
255
255
255
255
255
255
255
255
255
254
254
254
255
255
255
254
254
254
195
195
195
140
140
140
143
143
143
145
145
145
204
204
204
255
255
255
252
252
252
254
254
254
255
255
255
195
195
195
140
140
140
143
143
143
145
145
145
202
202
202
255
255
255
253
253
253
255
255
255
255
255
255
255
255
255
255
255
255
255
255
255
255
255
255
255
255
255
255
255
255
255
255
255
255
255
255
255
255
255
255
255
255
255
255
255
255
255
255
255
255
255
255
255
255
255
255
255
255
255
255
255
255
255
255
255
255
254
254
254
255
255
255
240
244
249
135
176
217
102
152
203
102
152
203
111
159
209
223
233
243
255
255
255
252
252
252
255
255
255
238
240
242
140
184
228
100
150
200
102
152
203
114
162
210
218
230
241
255
255
255
253
253
253
255
255
255
255
255
255
255
255
255
255
255
255
255
255
255
255
255
255
254
254
254
255
255
255
254
254
254
195
195
195
140
140
140
143
143
143
145
145
145
204
204
204
255
255
255
252
252
252
254
254
254
255
255
255
195
195
195
140
140
140
143
143
143
145
145
145
202
202
202
255
255
255
253
253
253
255
255
255
255
255
255
255
255
255
255
255
255
255
255
255
255
255
255
255
255
255
255
255
255
255
255
255
255
255
255
255
255
255
255
255
255
255
255
255
255
255
255
255
255
255
255
255
255
255
255
255
255
255
255
255
255
255
255
255
255
254
254
254
255
255
255
240
244
249
135
176
217
102
152
203
102
152
203
111
159
209
223
233
243
255
255
255
252
252
252
255
255
255
238
240
242
140
184
228
100
150
200
102
152
203
114
162
210
218
230
241
255
255
255
253
253
253
255
255
255
255
255
255
255
255
255
255
255
255
255
255
255
255
255
255
254
254
254
255
255
255
254
254
254
195
195
195
140
140
140
143
143
143
145
145
145
204
204
204
255
255
255
252
252
252
254
254
254
255
255
255
195
195
195
140
140
140
143
143
143
145
145
145
202
202
202
255
255
255
253
253
253
255
255
255
255
255
255
255
255
255
255
255
255
255
255
255
255
255
255
255
255
255
255
255
255
255
255
255
255
255
255
255
255
255
255
255
255
255
255
255
255
255
255
255
255
255
255
255
255
255
255
255
255
255
255
255
255
255
255
255
255
254
254
254
255
255
255
240
244
249
135
176
217
102
152
203
102
152
203
111
159
209
223
233
243
255
255
255
252
252
252
255
255
255
238
240
242
140
184
228
100
150
200
102
152
203
114
162
210
218
230
241
255
255
255
253
253
253
255
255
255
255
255
255
255
255
255
255
255
255
255
255
255
255
255
255
254
254
254
255
255
255
254
254
254
195
195
195
140
140
140
143
143
143
145
145
145
204
204
204
255
255
255
252
252
252
254
254
254
255
255
255
195
195
195
140
140
140
143
143
143
145
145
145
202
202
202
255
255
255
253
253
253
255
255
255
255
255
255
255
255
255
255
255
255
255
255
255
255
255
255
255
255
255
255
255
255
255
255
255
255
255
255
255
255
255
255
255
255
255
255
255
255
255
255
255
255
255
255
255
255
255
255
255
255
255
255
255
255
255
255
255
255
254
254
254
255
255
255
240
244
249
135
176
217
102
152
203
102
152
203
111
159
209
223
233
243
255
255
255
252
252
252
255
255
255
238
240
242
140
184
228
100
150
200
102
152
203
114
162
210
218
230
241
255
255
255
253
253
253
255
255
255
255
255
255
255
255
255
255
255
255
255
255
255
255
255
255
254
254
254
255
255
255
254
254
254
195
195
195
140
140
140
143
143
143
145
145
145
204
204
204
255
255
255
252
252
252
254
254
254
255
255
255
195
195
195
140
140
140
143
143
143
145
145
145
202
202
202
255
255
255
253
253
253
255
255
255
255
255
255
255
255
255
255
255
255
255
255
255
255
255
255
255
255
255
255
255
255
255
255
255
255
255
255
255
255
255
255
255
255
255
255
255
255
255
255
255
255
255
255
255
255
255
255
255
255
255
255
255
255
255
255
255
255
254
254
254
255
255
255
240
244
249
135
176
217
102
152
203
102
152
203
111
159
209
223
233
243
255
255
255
252
252
252
255
255
255
238
240
242
140
184
228
100
150
200
102
152
203
114
162
210
218
230
241
255
255
255
253
253
253
255
255
255
255
255
255
255
255
255
255
255
255
255
255
255
255
255
255
254
254
254
255
255
255
254
254
254
195
195
195
140
140
140
143
143
143
145
145
145
204
204
204
255
255
255
252
252
252
254
254
254
255
255
255
195
195
195
140
140
140
143
143
143
145
145
145
202
202
202
255
255
255
253
253
253
255
255
255
255
255
255
255
255
255
255
255
255
255
255
255
255
255
255
255
255
255
255
255
255
255
255
255
255
255
255
255
255
255
255
255
255
255
255
255
255
255
255
255
255
255
255
255
255
255
255
255
255
255
255
255
255
255
255
255
255
254
254
254
255
255
255
240
244
249
135
176
217
102
152
203
102
152
203
111
159
209
223
233
243
255
255
255
252
252
252
255
255
255
238
240
242
140
184
228
100
150
200
102
152
203
114
162
210
218
230
241
255
255
255
253
253
253
255
255
255
255
255
255
255
255
255
255
255
255
255
255
255
255
255
255
254
254
254
255
255
255
254
254
254
195
195
195
140
140
140
143
143
143
145
145
145
204
204
204
255
255
255
252
252
252
255
255
255
255
255
255
191
191
191
140
140
140
143
143
143
145
145
145
202
202
202
255
255
255
253
253
253
255
255
255
255
255
255
255
255
255
255
255
255
255
255
255
255
255
255
255
255
255
255
255
255
255
255
255
255
255
255
255
255
255
255
255
255
255
255
255
255
255
255
255
255
255
255
255
255
255
255
255
255
255
255
255
255
255
255
255
255
254
254
254
255
255
255
240
244
249
135
176
217
102
152
203
102
152
203
111
159
209
223
233
243
255
255
255
252
252
252
255
255
255
238
240
242
140
184
228
100
150
200
102
152
203
114
162
210
218
230
241
255
255
255
253
253
253
255
255
255
255
255
255
255
255
255
255
255
255
255
255
255
255
255
255
254
254
254
255
255
255
254
254
254
195
195
195
140
140
140
143
143
143
145
145
145
204
204
204
255
255
255
252
252
252
255
255
255
255
255
255
183
183
183
140
140
140
143
143
143
145
145
145
202
202
202
255
255
255
253
253
253
255
255
255
255
255
255
255
255
255
255
255
255
255
255
255
255
255
255
255
255
255
255
255
255
255
255
255
255
255
255
255
255
255
255
255
255
255
255
255
255
255
255
255
255
255
255
255
255
255
255
255
255
255
255
255
255
255
255
255
255
254
254
254
255
255
255
240
244
249
135
176
217
102
152
203
102
152
203
111
159
209
223
233
243
255
255
255
252
252
252
255
255
255
238
240
242
140
184
228
100
150
200
102
152
203
114
162
210
218
230
241
255
255
255
253
253
253
255
255
255
255
255
255
255
255
255
255
255
255
255
255
255
255
255
255
254
254
254
255
255
255
254
254
254
195
195
195
140
140
140
143
143
143
145
145
145
204
204
204
255
255
255
252
252
252
255
255
255
255
255
255
183
183
183
140
140
140
143
143
143
145
145
145
202
202
202
255
255
255
253
253
253
255
255
255
255
255
255
255
255
255
255
255
255
255
255
255
255
255
255
255
255
255
255
255
255
255
255
255
255
255
255
255
255
255
255
255
255
255
255
255
255
255
255
255
255
255
255
255
255
255
255
255
255
255
255
255
255
255
255
255
255
254
254
254
255
255
255
240
244
249
135
176
217
102
152
203
102
152
203
111
159
209
223
233
243
255
255
255
252
252
252
255
255
255
238
240
242
140
184
228
100
150
200
102
152
203
114
162
210
218
230
241
255
255
255
253
253
253
255
255
255
255
255
255
255
255
255
255
255
255
255
255
255
255
255
255
254
254
254
255
255
255
254
254
254
195
195
195
140
140
140
143
143
143
145
145
145
204
204
204
255
255
255
252
252
252
255
255
255
255
255
255
183
183
183
140
140
140
143
143
143
145
145
145
202
202
202
255
255
255
253
253
253
255
255
255
255
255
255
255
255
255
255
255
255
255
255
255
255
255
255
255
255
255
255
255
255
255
255
255
255
255
255
255
255
255
255
255
255
255
255
255
255
255
255
255
255
255
255
255
255
255
255
255
255
255
255
255
255
255
255
255
255
254
254
254
255
255
255
240
244
249
135
176
217
102
152
203
102
152
203
111
159
209
223
233
243
255
255
255
252
252
252
255
255
255
238
240
242
140
184
228
100
150
200
102
152
203
114
162
210
218
230
241
255
255
255
253
253
253
255
255
255
254
254
254
254
254
254
254
254
254
254
254
254
255
255
255
254
254
254
255
255
255
254
254
254
195
195
195
140
140
140
143
143
143
145
145
145
204
204
204
255
255
255
252
252
252
255
255
255
255
255
255
183
183
183
140
140
140
143
143
143
145
145
145
202
202
202
255
255
255
253
253
253
255
255
255
255
255
255
255
255
255
255
255
255
255
255
255
255
255
255
255
255
255
255
255
255
255
255
255
255
255
255
255
255
255
255
255
255
255
255
255
255
255
255
255
255
255
255
255
255
255
255
255
255
255
255
255
255
255
255
255
255
254
254
254
255
255
255
240
244
249
135
176
217
102
152
203
102
152
203
111
159
209
223
233
243
255
255
255
252
252
252
255
255
255
238
240
242
140
184
228
100
150
200
102
152
203
114
162
210
218
230
241
255
255
255
252
252
253
255
255
255
255
255
255
255
255
255
255
255
255
255
255
255
255
255
255
253
253
253
255
255
255
254
254
254
195
195
195
140
140
140
143
143
143
145
145
145
204
204
204
255
255
255
252
252
252
255
255
255
255
255
255
183
183
183
140
140
140
143
143
143
145
145
145
202
202
202
255
255
255
253
253
253
255
255
255
255
255
255
255
255
255
255
255
255
255
255
255
255
255
255
255
255
255
255
255
255
255
255
255
255
255
255
255
255
255
255
255
255
255
255
255
255
255
255
255
255
255
255
255
255
255
255
255
255
255
255
255
255
255
255
255
255
254
254
254
255
255
255
240
244
249
135
176
217
102
152
203
102
152
203
111
159
209
223
233
243
255
255
255
252
252
252
255
255
255
238
240
242
140
184
228
100
150
200
102
152
203
114
162
210
218
230
242
255
255
255
246
247
248
193
220
248
162
196
230
166
201
234
169
202
235
195
195
195
194
194
194
233
233
233
255
255
255
253
253
253
196
196
196
140
140
140
143
143
143
145
145
145
204
204
204
255
255
255
252
252
252
255
255
255
255
255
255
183
183
183
140
140
140
143
143
143
145
145
145
202
202
202
255
255
255
253
253
253
255
255
255
255
255
255
255
255
255
255
255
255
255
255
255
255
255
255
255
255
255
255
255
255
255
255
255
255
255
255
255
255
255
255
255
255
255
255
255
255
255
255
255
255
255
255
255
255
255
255
255
255
255
255
255
255
255
255
255
255
254
254
254
255
255
255
240
244
249
135
176
217
102
152
203
102
152
203
111
159
209
223
233
243
255
255
255
252
252
252
255
255
255
238
240
242
140
184
228
100
150
200
102
152
203
114
162
210
218
229
241
255
255
255
255
255
255
192
214
236
117
161
205
119
163
207
101
151
200
139
139
139
161
161
161
237
237
237
255
255
255
253
253
253
195
195
195
140
140
140
143
143
143
145
145
145
204
204
204
255
255
255
252
252
252
255
255
255
255
255
255
183
183
183
140
140
140
143
143
143
145
145
145
202
202
202
255
255
255
253
253
253
255
255
255
255
255
255
255
255
255
255
255
255
255
255
255
255
255
255
255
255
255
255
255
255
255
255
255
255
255
255
255
255
255
255
255
255
255
255
255
255
255
255
255
255
255
255
255
255
255
255
255
255
255
255
255
255
255
255
255
255
254
254
254
255
255
255
240
244
249
135
176
217
102
152
203
102
152
203
111
159
209
223
233
243
255
255
255
252
252
252
255
255
255
238
240
242
140
184
228
100
150
200
102
152
203
114
162
210
218
230
241
255
255
255
254
254
254
253
253
254
232
240
249
172
199
226
111
159
207
141
141
141
195
195
195
255
255
255
255
255
255
254
254
254
195
195
195
140
140
140
143
143
143
145
145
145
204
204
204
255
255
255
252
252
252
255
255
255
255
255
255
183
183
183
140
140
140
143
143
143
145
145
145
202
202
202
255
255
255
253
253
253
255
255
255
255
255
255
255
255
255
255
255
255
255
255
255
255
255
255
255
255
255
255
255
255
255
255
255
255
255
255
255
255
255
255
255
255
255
255
255
255
255
255
255
255
255
255
255
255
255
255
255
255
255
255
255
255
255
255
255
255
254
254
254
255
255
255
240
244
249
135
176
217
102
152
203
102
152
203
111
159
209
223
233
243
255
255
255
252
252
252
255
255
255
238
240
242
140
184
228
100
150
200
102
152
203
114
162
210
218
230
241
255
255
255
254
254
254
243
247
250
167
197
228
108
156
205
103
153
204
140
140
140
196
196
196
254
254
254
255
255
255
254
254
254
195
195
195
140
140
140
143
143
143
145
145
145
204
204
204
255
255
255
252
252
252
255
255
255
255
255
255
183
183
183
140
140
140
143
143
143
145
145
145
202
202
202
255
255
255
253
253
253
255
255
255
255
255
255
255
255
255
255
255
255
255
255
255
255
255
255
255
255
255
255
255
255
255
255
255
255
255
255
255
255
255
255
255
255
255
255
255
255
255
255
255
255
255
255
255
255
255
255
255
255
255
255
255
255
255
255
255
255
254
254
254
255
255
255
240
244
249
135
176
217
102
152
203
102
152
203
111
159
209
223
233
243
255
255
255
252
252
252
255
255
255
238
240
242
140
184
228
100
150
200
102
152
203
114
162
210
218
230
241
255
255
255
255
255
255
224
234
244
113
161
210
102
152
203
104
154
205
140
140
140
196
196
196
254
254
254
255
255
255
254
254
254
195
195
195
140
140
140
143
143
143
145
145
145
204
204
204
255
255
255
252
252
252
255
255
255
255
255
255
183
183
183
140
140
140
143
143
143
145
145
145
202
202
202
255
255
255
253
253
253
255
255
255
255
255
255
255
255
255
255
255
255
255
255
255
255
255
255
255
255
255
255
255
255
255
255
255
255
255
255
255
255
255
255
255
255
255
255
255
255
255
255
255
255
255
255
255
255
255
255
255
255
255
255
255
255
255
255
255
255
254
254
254
255
255
255
240
244
249
135
176
217
102
152
203
102
152
203
111
159
209
223
233
243
255
255
255
252
252
252
255
255
255
238
240
242
140
184
228
100
150
200
102
152
203
114
162
210
218
230
241
255
255
255
255
255
255
225
234
243
118
164
212
103
152
203
104
154
205
140
140
140
196
196
196
254
254
254
255
255
255
254
254
254
195
195
195
140
140
140
143
143
143
145
145
145
204
204
204
255
255
255
252
252
252
255
255
255
255
255
255
183
183
183
140
140
140
143
143
143
145
145
145
202
202
202
255
255
255
253
253
253
255
255
255
255
255
255
255
255
255
255
255
255
255
255
255
255
255
255
255
255
255
255
255
255
255
255
255
255
255
255
255
255
255
255
255
255
255
255
255
255
255
255
255
255
255
255
255
255
255
255
255
255
255
255
255
255
255
255
255
255
254
254
254
255
255
255
240
244
249
135
176
217
102
152
203
102
152
203
111
159
209
223
233
243
255
255
255
252
252
252
255
255
255
238
240
242
140
184
228
100
150
200
102
152
203
114
162
210
218
230
241
255
255
255
255
255
255
225
234
243
118
164
211
102
152
203
104
154
205
140
140
140
196
196
196
254
254
254
255
255
255
254
254
254
195
195
195
140
140
140
143
143
143
145
145
145
204
204
204
255
255
255
252
252
252
255
255
255
255
255
255
183
183
183
140
140
140
143
143
143
145
145
145
202
202
202
255
255
255
253
253
253
255
255
255
255
255
255
255
255
255
255
255
255
255
255
255
255
255
255
255
255
255
255
255
255
255
255
255
255
255
255
255
255
255
255
255
255
255
255
255
255
255
255
255
255
255
255
255
255
255
255
255
255
255
255
255
255
255
255
255
255
254
254
254
255
255
255
240
244
249
135
176
217
102
152
203
102
152
203
111
159
209
223
233
243
255
255
255
252
252
252
255
255
255
238
240
242
140
184
228
100
150
200
102
152
203
114
162
210
218
230
241
255
255
255
255
255
255
225
234
243
118
164
211
102
152
203
104
154
205
140
140
140
196
196
196
254
254
254
255
255
255
254
254
254
195
195
195
140
140
140
143
143
143
145
145
145
204
204
204
255
255
255
252
252
252
255
255
255
255
255
255
183
183
183
140
140
140
143
143
143
145
145
145
202
202
202
255
255
255
253
253
253
255
255
255
255
255
255
255
255
255
255
255
255
255
255
255
255
255
255
255
255
255
255
255
255
255
255
255
255
255
255
255
255
255
255
255
255
255
255
255
255
255
255
255
255
255
255
255
255
255
255
255
255
255
255
255
255
255
255
255
255
254
254
254
255
255
255
240
244
249
135
176
217
102
152
203
102
152
203
111
159
209
223
233
243
255
255
255
252
252
252
255
255
255
238
240
242
140
184
228
100
150
200
102
152
203
114
162
210
218
230
241
255
255
255
255
255
255
224
233
243
118
164
212
102
152
203
104
154
205
140
140
140
196
196
196
254
254
254
255
255
255
254
254
254
195
195
195
140
140
140
143
143
143
145
145
145
204
204
204
255
255
255
252
252
252
255
255
255
255
255
255
183
183
183
140
140
140
143
143
143
145
145
145
202
202
202
255
255
255
253
253
253
255
255
255
255
255
255
255
255
255
255
255
255
255
255
255
255
255
255
255
255
255
255
255
255
255
255
255
255
255
255
255
255
255
255
255
255
255
255
255
255
255
255
255
255
255
255
255
255
255
255
255
255
255
255
255
255
255
255
255
255
254
254
254
255
255
255
240
244
249
135
176
217
102
152
203
102
152
203
111
159
209
223
233
243
255
255
255
252
252
252
255
255
255
238
240
242
140
184
228
100
150
200
102
152
203
114
162
210
218
230
241
255
255
255
255
255
255
226
236
246
116
161
208
103
152
203
104
155
205
141
141
141
193
193
193
255
255
255
255
255
255
254
254
254
195
195
195
140
140
140
143
143
143
145
145
145
204
204
204
255
255
255
252
252
252
255
255
255
255
255
255
183
183
183
140
140
140
143
143
143
145
145
145
202
202
202
255
255
255
253
253
253
255
255
255
255
255
255
255
255
255
255
255
255
255
255
255
255
255
255
255
255
255
255
255
255
255
255
255
255
255
255
255
255
255
255
255
255
255
255
255
255
255
255
255
255
255
255
255
255
255
255
255
255
255
255
255
255
255
255
255
255
253
253
253
253
253
253
239
244
249
137
177
217
103
153
203
103
153
203
112
160
209
223
233
243
255
255
255
252
252
252
255
255
255
238
240
242
140
184
228
100
150
200
102
152
203
114
162
210
218
230
241
255
255
255
251
252
252
182
210
238
100
150
199
102
152
203
102
152
203
142
142
142
160
160
160
231
231
231
255
255
255
253
253
253
195
195
195
140
140
140
143
143
143
145
145
145
204
204
204
255
255
255
252
252
252
255
255
255
255
255
255
184
184
184
141
141
141
144
144
144
146
146
146
202
202
202
254
254
254
252
252
252
255
255
255
255
255
255
255
255
255
255
255
255
255
255
255
255
255
255
255
255
255
255
255
255
255
255
255
255
255
255
255
255
255
255
255
255
255
255
255
255
255
255
255
255
255
255
255
255
255
255
255
255
255
255
255
255
255
255
255
255
255
255
255
255
255
255
240
244
249
130
173
217
102
152
203
102
152
203
105
156
207
222
232
243
255
255
255
252
252
252
255
255
255
238
240
242
140
185
228
101
150
200
103
152
203
115
162
210
218
230
241
255
255
255
246
247
249
163
201
240
108
156
204
115
163
210
113
161
210
150
150
150
155
155
155
220
220
220
255
255
255
253
253
253
196
196
196
140
140
140
144
144
144
145
145
145
205
205
205
255
255
255
252
252
252
255
255
255
255
255
255
181
181
181
140
140
140
142
142
142
146
146
146
199
199
199
255
255
255
255
255
255
254
254
254
254
254
254
254
254
254
255
255
255
255
255
255
255
255
255
255
255
255
255
255
255
255
255
255
255
255
255
255
255
255
255
255
255
255
255
255
255
255
255
255
255
255
255
255
255
255
255
255
255
255
255
254
254
254
255
255
255
224
238
251
218
231
243
250
251
253
185
209
232
140
178
217
136
175
215
157
191
225
235
241
246
253
253
253
252
252
252
255
255
255
237
240
242
137
183
227
100
150
200
102
152
203
112
160
210
217
229
240
255
255
255
252
252
253
236
240
244
227
236
245
228
236
244
225
234
243
234
234
234
235
235
235
245
245
245
255
255
255
254
254
254
194
194
194
140
140
140
143
143
143
145
145
145
203
203
203
255
255
255
252
252
252
254
254
254
253
253
253
219
219
219
175
175
175
175
175
175
186
186
186
234
234
234
254
254
254
227
227
227
240
240
240
255
255
255
255
255
255
255
255
255
255
255
255
255
255
255
255
255
255
255
255
255
255
255
255
255
255
255
255
255
255
255
255
255
255
255
255
255
255
255
255
255
255
255
255
255
255
255
255
254
254
254
253
253
253
255
255
255
186
212
237
113
159
204
163
194
225
206
223
239
226
236
245
242
246
250
255
255
255
255
255
255
255
255
255
255
255
255
254
254
254
241
243
244
153
193
232
100
150
200
102
152
203
127
169
213
225
235
244
254
254
254
252
252
252
255
255
255
255
255
255
255
255
255
255
255
255
255
255
255
255
255
255
255
255
255
253
253
253
253
253
253
204
204
204
142
142
142
142
142
142
150
150
150
211
211
211
254
254
254
252
252
252
255
255
255
255
255
255
255
255
255
255
255
255
250
250
250
244
244
244
223
223
223
189
189
189
158
158
158
223
223
223
247
247
247
248
248
248
255
255
255
255
255
255
255
255
255
255
255
255
255
255
255
255
255
255
255
255
255
255
255
255
255
255
255
255
255
255
255
255
255
255
255
255
255
255
255
255
255
255
255
255
255
255
255
255
253
254
254
188
214
240
99
148
198
102
153
204
107
156
206
131
172
214
160
192
223
189
211
233
215
227
240
233
240
247
247
250
252
255
255
255
255
255
255
238
244
250
217
229
242
217
229
242
232
240
248
255
255
255
255
255
255
255
255
255
255
255
255
254
254
254
254
254
254
254
254
254
254
254
254
254
254
254
255
255
255
255
255
255
255
255
255
247
247
247
229
229
229
226
226
226
233
233
233
251
251
251
255
255
255
255
255
255
248
248
248
238
238
238
223
223
223
208
208
208
186
186
186
164
164
164
145
145
145
141
141
141
144
144
144
162
162
162
169
169
169
168
168
168
219
219
219
254
254
254
255
255
255
255
255
255
255
255
255
255
255
255
255
255
255
255
255
255
255
255
255
255
255
255
255
255
255
255
255
255
255
255
255
255
255
255
239
242
246
249
250
251
255
255
255
224
235
246
147
185
223
107
157
207
102
153
204
102
153
204
102
153
204
102
153
204
110
158
208
128
171
215
144
182
220
166
200
234
181
208
234
198
217
236
218
231
243
231
239
247
235
242
249
235
241
247
241
245
249
241
246
250
247
249
252
251
252
254
251
252
253
251
252
253
251
251
251
251
251
251
247
247
247
244
244
244
243
243
243
240
240
240
240
240
240
235
235
235
225
225
225
212
212
212
203
203
203
192
192
192
174
174
174
163
163
163
150
150
150
143
143
143
143
143
143
143
143
143
143
143
143
144
144
144
143
143
143
143
143
143
143
143
143
139
139
139
183
183
183
249
249
249
255
255
255
254
254
254
255
255
255
255
255
255
255
255
255
255
255
255
255
255
255
255
255
255
255
255
255
255
255
255
254
254
254
255
255
255
180
204
229
161
195
229
231
238
245
255
255
255
250
251
252
202
219
236
151
186
221
116
163
209
102
153
204
102
153
204
102
153
204
102
152
203
102
152
203
100
150
200
101
152
202
103
153
204
105
155
205
109
157
206
118
164
209
128
171
215
138
177
218
137
177
218
146
183
220
152
187
222
152
187
222
152
187
222
180
180
180
179
179
179
172
172
172
169
169
169
169
169
169
160
160
160
153
153
153
146
146
146
144
144
144
143
143
143
140
140
140
140
140
140
142
142
142
142
142
142
143
143
143
143
143
143
144
144
144
144
144
144
143
143
143
143
143
143
143
143
143
144
144
144
145
145
145
141
141
141
187
187
187
248
248
248
255
255
255
254
254
254
255
255
255
255
255
255
255
255
255
255
255
255
255
255
255
255
255
255
255
255
255
255
255
255
253
253
253
255
255
255
165
192
218
103
154
205
129
172
215
179
204
230
228
235
242
255
255
255
255
255
255
226
236
245
187
210
232
153
187
221
124
168
211
110
158
207
102
153
204
102
153
204
102
153
204
102
153
204
102
153
204
102
153
204
102
153
204
102
153
204
102
152
203
102
152
203
102
152
203
102
152
203
102
152
203
102
152
203
142
142
142
142
142
142
142
142
142
142
142
142
142
142
142
143
143
143
143
143
143
143
143
143
143
143
143
143
143
143
143
143
143
144
144
144
144
144
144
144
144
144
143
143
143
143
143
143
143
143
143
143
143
143
143
143
143
143
143
143
143
143
143
143
143
143
144
144
144
141
141
141
184
184
184
248
248
248
255
255
255
254
254
254
255
255
255
255
255
255
255
255
255
255
255
255
255
255
255
255
255
255
255
255
255
255
255
255
253
253
253
255
255
255
193
213
234
104
154
204
102
151
202
102
153
204
122
169
214
163
195
227
203
220
237
240
245
250
255
255
255
255
255
255
243
247
251
217
229
242
190
212
233
164
194
225
145
181
218
127
169
212
112
159
207
107
157
206
104
154
205
102
153
204
102
153
204
102
153
204
102
153
204
102
153
204
102
153
204
102
153
204
143
143
143
143
143
143
143
143
143
143
143
143
144
144
144
148
148
148
148
148
148
143
143
143
143
143
143
143
143
143
143
143
143
143
143
143
143
143
143
143
143
143
143
143
143
143
143
143
143
143
143
143
143
143
143
143
143
143
143
143
143
143
143
144
144
144
143
143
143
137
137
137
197
197
197
252
252
252
254
254
254
255
255
255
255
255
255
255
255
255
255
255
255
255
255
255
255
255
255
255
255
255
255
255
255
255
255
255
254
254
254
255
255
255
246
247
249
181
209
238
111
157
205
101
151
201
102
152
203
101
152
203
106
155
205
124
168
211
155
188
222
187
209
232
214
228
241
236
243
249
253
254
254
255
255
255
248
251
253
242
246
251
235
242
248
221
232
244
205
222
238
194
215
235
184
208
231
177
203
229
166
196
225
167
196
226
167
197
226
167
197
226
192
192
192
190
190
190
193
193
193
198
198
198
196
196
196
190
190
190
168
168
168
143
143
143
143
143
143
143
143
143
143
143
143
143
143
143
143
143
143
143
143
143
143
143
143
143
143
143
143
143
143
143
143
143
144
144
144
143
143
143
143
143
143
142
142
142
141
141
141
188
188
188
241
241
241
255
255
255
254
254
254
255
255
255
255
255
255
255
255
255
255
255
255
255
255
255
255
255
255
255
255
255
255
255
255
255
255
255
255
255
255
255
255
255
255
255
255
254
254
255
213
228
244
154
190
227
111
158
206
100
150
200
102
152
203
102
152
203
102
153
204
102
153
204
109
157
206
123
167
211
135
175
215
155
188
222
175
201
228
191
212
234
206
223
239
215
229
242
221
233
244
223
233
244
231
239
247
234
241
248
234
241
248
229
237
246
221
233
244
220
231
243
223
223
223
213
213
213
201
201
201
187
187
187
169
169
169
156
156
156
145
145
145
143
143
143
143
143
143
143
143
143
143
143
143
143
143
143
143
143
143
143
143
143
144
144
144
144
144
144
143
143
143
142
142
142
142
142
142
140
140
140
147
147
147
175
175
175
219
219
219
249
249
249
255
255
255
254
254
254
255
255
255
255
255
255
255
255
255
255
255
255
255
255
255
255
255
255
255
255
255
255
255
255
255
255
255
255
255
255
255
255
255
255
255
255
254
254
254
255
255
255
255
255
255
249
251
252
220
233
245
179
208
237
138
177
218
114
162
211
100
151
201
100
150
200
101
151
202
102
153
204
102
152
203
102
153
204
102
153
204
102
153
204
102
153
204
106
155
205
111
159
207
112
160
207
119
165
210
122
166
211
122
166
211
117
163
209
111
159
207
109
158
206
143
143
143
143
143
143
143
143
143
143
143
143
143
143
143
143
143
143
143
143
143
144
144
144
144
144
144
144
144
144
144
144
144
143
143
143
142
142
142
143
143
143
141
141
141
140
140
140
141
141
141
151
151
151
168
168
168
199
199
199
225
225
225
249
249
249
255
255
255
255
255
255
254
254
254
255
255
255
255
255
255
255
255
255
255
255
255
255
255
255
255
255
255
255
255
255
255
255
255
255
255
255
255
255
255
255
255
255
255
255
255
255
255
255
255
255
255
255
255
255
253
253
253
255
255
255
255
255
255
255
255
255
244
247
250
217
229
241
194
217
240
166
200
235
138
181
223
122
168
213
111
161
210
102
153
204
100
150
200
101
151
201
100
151
201
100
151
201
101
151
201
102
153
204
102
153
204
102
153
204
102
153
204
102
153
204
102
153
204
102
153
204
143
143
143
143
143
143
143
143
143
143
143
143
143
143
143
143
143
143
141
141
141
141
141
141
141
141
141
141
141
141
140
140
140
143
143
143
149
149
149
157
157
157
172
172
172
192
192
192
211
211
211
225
225
225
245
245
245
255
255
255
255
255
255
255
255
255
253
253
253
254
254
254
255
255
255
255
255
255
255
255
255
255
255
255
255
255
255
255
255
255
255
255
255
255
255
255
255
255
255
255
255
255
255
255
255
255
255
255
255
255
255
255
255
255
255
255
255
255
255
255
255
255
255
254
254
254
253
253
253
254
254
254
255
255
255
255
255
255
255
255
255
254
254
254
245
247
249
229
237
245
209
222
236
195
215
235
183
211
238
167
200
232
155
192
229
145
185
226
134
179
224
124
169
212
121
166
210
121
166
210
116
162
209
114
161
208
114
161
208
114
161
208
151
151
151
151
151
151
152
152
152
156
156
156
156
156
156
159
159
159
170
170
170
176
176
176
183
183
183
192
192
192
203
203
203
210
210
210
219
219
219
234
234
234
245
245
245
253
253
253
255
255
255
255
255
255
255
255
255
254
254
254
253
253
253
254
254
254
255
255
255
255
255
255
255
255
255
255
255
255
255
255
255
255
255
255
255
255
255
255
255
255
255
255
255
255
255
255
255
255
255
255
255
255
255
255
255
255
255
255
255
255
255
255
255
255
255
255
255
255
255
255
255
255
255
255
255
255
255
255
255
255
255
255
254
254
254
253
253
253
253
253
253
255
255
255
255
255
255
255
255
255
255
255
255
255
255
255
255
255
255
253
253
253
248
249
250
244
245
247
240
242
244
234
240
247
227
236
246
226
235
245
214
227
241
210
225
240
210
225
240
210
225
240
222
222
222
222
222
222
224
224
224
233
233
233
234
234
234
238
238
238
242
242
242
244
244
244
248
248
248
253
253
253
255
255
255
255
255
255
255
255
255
255
255
255
255
255
255
255
255
255
253
253
253
253
253
253
254
254
254
255
255
255
255
255
255
255
255
255
255
255
255
255
255
255
255
255
255
255
255
255
255
255
255
255
255
255
255
255
255
255
255
255
255
255
255
255
255
255
