P3
2
3
255
140
140
140
58
58
58
60
80
100
80
100
120
50
50
50
100
150
200
