P2
64
64
255
242
239
255
255
255
255
255
255
255
255
255
255
255
255
255
255
255
255
255
255
255
255
255
255
255
255
255
255
255
255
255
255
255
255
255
255
255
255
255
255
255
255
255
255
255
255
255
255
255
255
255
255
255
255
255
255
255
255
255
255
255
255
255
255
156
245
255
255
255
255
255
255
255
255
255
255
255
255
255
255
255
255
255
255
255
255
255
255
255
255
255
255
255
255
255
255
255
255
255
255
255
255
255
255
255
255
255
255
255
255
255
255
255
255
255
255
255
255
255
255
255
255
255
255
255
255
255
255
82
103
238
240
246
245
246
250
248
250
254
251
250
253
251
249
245
251
246
247
249
252
254
252
252
251
252
253
254
254
254
254
253
252
255
255
255
255
255
255
255
255
255
255
255
255
255
255
255
255
249
252
252
249
249
253
252
250
249
250
250
250
252
254
78
90
105
205
240
251
249
247
250
253
249
254
254
252
253
254
252
250
249
249
251
253
254
253
252
252
252
253
254
254
254
253
253
252
255
255
255
255
255
255
255
255
255
255
255
255
255
255
255
255
250
252
253
250
250
253
252
250
252
254
252
252
253
253
76
80
71
80
181
243
251
249
248
252
252
252
253
247
244
251
252
244
253
253
254
254
253
252
253
253
254
254
254
254
255
253
252
252
255
255
255
255
255
255
255
255
255
255
255
255
255
255
255
255
251
253
253
251
250
253
252
250
252
252
251
252
253
251
76
78
73
75
67
154
232
250
248
245
249
253
250
249
247
253
252
248
252
252
252
252
252
252
253
254
254
253
253
253
255
253
252
252
255
255
255
255
255
255
255
255
255
255
255
255
255
255
255
255
253
253
255
252
251
253
252
250
254
251
249
253
250
250
78
79
73
80
82
69
128
218
243
248
243
244
251
251
253
248
253
254
249
249
250
251
252
253
254
254
253
252
253
253
255
253
252
252
255
255
255
255
255
255
255
255
255
255
255
255
255
255
255
255
255
254
254
253
252
254
252
250
254
248
247
254
248
248
83
76
77
80
76
79
75
109
201
238
253
250
247
247
254
254
249
252
249
249
250
251
252
254
254
254
253
253
253
254
255
254
253
253
255
255
255
255
255
255
255
255
255
255
255
255
255
255
255
255
253
254
253
255
253
254
251
251
251
243
243
253
246
247
99
77
81
75
75
76
85
76
86
176
232
253
245
240
251
253
251
250
250
251
252
253
254
254
254
254
254
255
255
254
254
255
255
254
255
255
255
255
255
255
255
255
255
255
255
255
255
255
255
255
251
254
252
253
254
255
251
251
252
243
243
254
245
247
112
79
75
80
79
77
74
75
78
73
147
225
252
241
245
251
245
247
254
253
253
252
252
252
253
254
253
253
253
253
254
254
253
252
255
255
255
255
255
255
255
255
255
255
255
255
255
255
255
255
250
254
252
252
254
254
252
252
252
246
243
254
246
248
162
80
77
75
75
74
75
77
78
80
70
135
206
246
249
249
254
248
250
250
247
247
249
251
253
254
252
251
251
252
254
253
251
250
255
255
255
255
255
255
255
255
255
255
255
255
255
255
255
255
249
253
252
252
253
253
252
253
252
242
247
243
249
250
194
75
77
75
76
75
75
77
80
80
83
68
104
195
242
249
248
252
247
246
248
248
249
249
249
253
252
250
250
251
253
252
250
249
255
255
255
255
255
255
255
255
255
255
255
255
255
255
255
255
249
253
252
252
252
253
253
254
252
243
248
252
253
252
230
81
78
77
76
75
75
78
80
81
74
88
76
86
161
230
252
245
251
249
244
244
248
250
252
252
251
249
249
250
253
252
250
248
255
255
255
255
255
255
255
255
255
255
255
255
255
255
255
255
250
252
254
252
252
252
254
253
252
251
248
252
250
242
240
113
80
79
77
75
75
77
79
80
79
74
80
76
76
149
228
251
245
253
252
251
248
249
252
255
252
250
249
250
253
253
250
249
255
255
255
255
255
255
255
255
255
255
255
255
255
255
255
255
251
252
254
252
251
252
253
252
252
253
253
247
243
201
247
165
82
80
78
76
75
76
77
78
75
75
75
83
85
66
117
202
244
245
249
253
251
244
250
252
254
252
250
251
253
254
251
250
255
255
255
255
255
255
255
255
255
255
255
255
255
255
255
255
253
252
253
253
250
252
252
250
254
250
250
245
237
132
241
213
83
81
79
76
75
74
75
76
82
75
82
88
69
72
88
81
201
228
241
247
247
252
251
250
253
253
252
252
252
255
252
252
255
255
255
255
255
255
255
255
255
255
255
255
255
255
255
255
254
252
252
253
250
252
251
249
254
245
245
247
214
83
244
239
83
81
80
77
75
73
74
76
77
79
73
72
89
89
75
73
82
168
233
242
250
250
248
246
251
254
253
252
252
254
254
253
255
255
255
255
255
255
255
255
255
255
255
255
255
255
255
255
254
252
251
254
249
252
250
248
253
242
244
246
175
85
249
241
84
82
81
77
75
76
76
76
78
76
77
79
76
74
77
80
69
83
148
225
248
253
244
249
250
252
255
253
252
253
254
254
255
255
255
255
255
255
255
255
255
255
255
255
255
255
255
255
253
252
251
254
249
252
249
247
249
243
245
245
134
111
238
252
166
69
80
70
76
74
78
74
76
76
77
78
77
76
76
77
80
76
74
110
193
239
251
240
242
250
254
250
253
254
250
252
255
255
255
255
255
255
255
255
255
255
255
255
255
255
255
255
250
252
251
248
250
252
251
253
247
251
244
220
84
160
221
251
183
76
79
74
78
75
79
76
75
76
77
78
77
76
76
77
69
72
80
72
99
184
243
253
248
247
251
254
250
252
253
252
255
255
255
255
255
255
255
255
255
255
255
255
255
255
255
255
251
253
252
250
252
252
252
253
252
243
245
150
78
194
190
250
208
89
75
77
80
78
78
79
76
76
77
77
77
76
76
77
83
72
68
76
82
90
156
237
248
248
249
248
250
245
238
252
255
255
255
255
255
255
255
255
255
255
255
255
255
255
255
255
252
255
252
252
253
252
252
254
254
244
231
83
90
229
152
247
230
109
70
77
78
79
76
81
76
76
77
78
77
76
76
76
75
84
71
70
82
74
76
130
229
246
252
254
247
251
253
242
255
255
255
255
255
255
255
255
255
255
255
255
255
255
255
255
252
253
253
251
252
251
249
253
251
245
160
73
128
242
115
245
240
140
69
75
76
77
73
79
76
76
77
77
77
76
76
76
76
75
79
74
72
80
84
62
118
208
245
250
252
253
244
255
255
255
255
255
255
255
255
255
255
255
255
255
255
255
255
255
251
250
253
249
250
251
247
253
247
235
92
76
168
252
89
234
248
177
76
75
75
74
73
76
76
76
77
77
77
76
76
76
84
76
75
77
77
75
76
85
67
100
179
241
251
245
249
253
255
255
255
255
255
255
255
255
255
255
255
255
255
255
255
255
250
249
253
247
248
251
247
253
250
188
78
71
198
247
75
200
248
209
86
77
77
75
78
76
76
76
76
77
77
76
76
76
70
89
78
71
77
75
70
79
84
74
75
157
242
252
250
252
255
255
255
255
255
255
255
255
255
255
255
255
255
255
255
255
249
249
254
247
248
253
248
252
244
125
77
92
223
245
73
167
243
233
97
79
79
76
83
77
76
76
76
76
76
76
76
76
76
75
76
79
76
78
80
75
74
79
76
69
134
224
252
247
255
255
255
255
255
255
255
255
255
255
255
255
255
255
255
255
248
250
254
248
248
254
250
250
231
87
71
127
243
245
93
98
244
241
129
77
77
79
81
74
76
76
76
76
76
76
76
76
76
76
76
77
77
77
77
77
77
75
77
77
63
102
248
246
251
255
255
255
251
250
255
255
255
255
255
255
255
255
255
255
247
251
250
250
249
249
248
246
181
67
78
145
244
247
89
93
232
247
160
75
80
74
79
74
76
76
76
76
76
77
76
76
76
76
76
77
77
77
78
77
78
80
79
77
78
87
202
251
253
255
255
255
252
251
255
255
255
255
255
255
255
255
255
255
250
252
250
253
251
249
252
241
144
71
79
176
243
253
84
86
193
251
202
73
82
72
76
75
76
76
76
76
76
76
76
76
76
76
76
76
77
77
77
77
73
83
77
76
84
75
131
240
255
255
255
255
254
253
253
254
255
255
255
255
255
255
255
255
252
254
253
253
253
248
254
226
102
77
87
218
242
249
79
80
160
249
233
87
80
74
75
77
76
77
76
76
76
76
77
76
76
76
76
76
76
77
77
77
70
78
75
76
85
76
86
212
255
255
255
255
255
254
252
249
255
255
255
255
255
255
255
255
254
253
254
252
253
248
252
203
84
84
102
244
244
246
79
78
133
240
246
118
73
80
75
78
76
77
77
76
76
76
77
76
76
76
76
76
76
76
76
76
74
75
75
76
79
80
70
163
252
253
255
255
255
255
251
248
255
255
255
255
255
255
255
255
252
252
254
250
253
250
247
173
78
84
133
250
249
246
82
80
110
221
252
166
72
84
75
77
76
77
77
76
76
77
76
76
76
76
76
76
76
76
76
76
80
75
76
78
73
79
71
114
244
249
255
255
255
255
253
252
255
255
255
255
255
255
255
255
250
252
253
249
253
253
242
140
73
79
185
254
251
241
87
85
87
196
251
209
80
82
78
73
76
77
77
76
76
76
76
76
76
76
76
76
76
76
76
76
77
78
74
78
76
75
77
90
235
244
255
255
255
255
255
255
255
255
255
255
255
255
255
255
248
251
252
249
252
253
234
106
74
78
224
254
253
243
90
88
72
177
248
234
89
79
80
72
76
77
77
76
76
76
76
77
76
76
76
76
76
76
76
76
73
79
70
78
80
75
83
83
229
241
255
255
255
254
255
255
255
255
255
255
255
255
255
255
248
250
251
249
252
253
227
84
83
83
239
248
254
248
91
90
80
142
242
247
119
72
90
69
76
76
76
76
76
76
76
76
76
76
76
76
76
76
76
76
76
76
76
76
76
76
76
76
183
235
249
253
254
252
253
251
249
249
254
250
247
250
254
249
252
246
249
251
248
244
166
81
80
148
244
253
252
246
89
81
83
113
223
247
158
72
82
77
76
76
76
76
76
76
76
76
76
76
76
76
76
76
76
76
76
76
76
76
76
76
76
76
164
237
249
253
252
253
253
252
249
249
253
250
247
250
254
250
253
248
251
251
248
247
139
82
80
167
245
251
252
248
229
228
178
169
234
248
191
70
73
81
76
76
76
76
76
76
76
77
76
76
76
76
76
76
76
76
76
76
76
76
76
76
76
76
135
236
250
249
251
252
252
252
249
249
253
250
248
251
254
251
254
251
252
251
249
241
100
82
85
195
248
247
252
251
252
252
248
237
249
248
208
79
70
75
76
76
76
76
76
76
76
76
76
76
76
76
76
76
76
76
76
76
76
76
76
76
76
76
105
226
250
246
250
250
250
253
249
249
253
251
250
252
254
252
253
252
252
250
254
216
75
78
101
223
251
246
251
251
245
243
247
247
252
248
230
116
77
77
76
76
76
76
76
76
76
76
76
76
76
76
76
76
76
76
76
76
76
76
76
76
76
76
86
202
248
245
250
249
247
254
249
249
253
251
251
252
254
253
251
252
251
248
252
175
69
73
130
242
253
248
251
251
252
252
246
249
252
251
243
156
79
82
76
76
76
76
76
76
76
76
76
76
76
76
76
76
76
76
76
76
76
76
76
76
76
76
79
169
247
246
251
248
246
252
249
249
253
252
252
253
254
254
250
253
251
248
248
129
70
71
166
249
251
253
251
252
250
250
247
253
246
252
247
185
73
75
76
76
76
76
76
76
76
76
76
76
76
76
76
76
76
76
76
76
76
76
76
76
76
76
81
128
244
247
252
247
246
250
249
249
253
252
253
254
254
253
250
254
253
251
235
102
72
76
197
248
249
254
251
252
252
252
243
253
242
253
251
218
89
76
76
76
76
76
76
76
76
76
76
76
76
76
76
76
76
76
76
76
76
76
76
76
76
76
81
102
241
249
252
248
246
250
250
249
253
253
253
254
254
253
251
247
254
251
220
91
71
80
218
241
247
254
251
252
254
254
247
251
248
249
251
238
102
76
76
76
76
76
76
76
76
76
76
76
76
76
76
76
76
76
76
76
76
76
76
76
76
76
82
76
212
251
253
242
247
252
252
251
253
254
254
254
254
253
252
252
255
247
177
66
71
110
243
247
247
254
251
253
253
253
249
252
249
249
251
243
137
77
77
76
76
77
76
76
76
76
76
76
76
76
76
76
76
76
76
76
76
76
76
76
76
76
80
74
173
248
253
250
249
251
253
252
253
255
254
254
255
254
254
251
254
241
149
67
68
147
247
247
247
254
252
253
252
252
250
253
249
252
251
246
182
78
76
76
76
76
76
76
76
76
76
76
76
76
76
76
76
76
76
76
76
76
76
76
76
76
77
75
120
241
249
254
252
246
254
253
253
254
254
254
255
254
253
251
254
233
107
69
65
188
249
248
249
253
253
253
253
253
251
254
251
254
254
245
215
76
75
76
76
76
77
76
76
76
76
76
76
76
76
76
76
76
76
76
76
76
76
76
76
76
75
77
85
228
247
252
252
249
252
254
253
254
253
253
254
252
251
252
253
219
73
70
71
220
249
251
251
253
254
253
253
253
251
252
253
254
252
242
233
88
75
77
76
76
77
76
76
76
76
76
76
76
76
76
76
76
76
76
76
76
76
76
76
76
75
78
74
199
247
248
248
253
250
252
253
254
253
252
254
250
248
252
253
196
58
68
93
237
249
251
254
251
252
254
253
253
251
251
250
253
249
243
242
125
75
77
76
76
77
76
76
76
76
76
76
76
76
76
76
76
76
76
76
76
76
76
76
76
74
79
76
159
245
244
244
252
249
251
253
253
252
251
254
249
246
252
253
151
62
68
137
245
249
247
252
251
251
254
254
254
252
248
249
253
246
247
248
179
76
77
76
76
77
76
76
76
76
76
76
76
76
76
76
76
76
76
76
76
76
76
76
76
74
78
77
117
242
243
240
252
249
250
253
253
252
250
254
247
241
252
250
101
67
67
186
251
249
244
251
251
250
254
253
253
254
247
248
253
244
247
250
217
75
77
76
76
77
76
76
76
76
76
76
76
76
76
76
76
76
76
76
76
76
76
76
76
75
77
76
85
237
242
235
251
248
249
253
253
252
250
254
247
238
249
243
67
74
67
214
253
248
243
250
250
250
254
255
255
254
253
250
249
253
245
248
240
91
82
80
77
82
81
74
76
76
76
76
76
76
76
76
76
76
76
76
76
76
76
76
76
81
80
79
77
189
250
245
249
252
253
252
252
251
252
252
246
248
247
197
58
73
81
251
247
252
245
247
254
252
253
255
255
254
253
250
250
253
246
249
241
117
76
78
77
80
79
76
79
76
76
76
76
76
76
76
76
76
76
76
76
76
76
76
76
79
78
77
73
164
248
246
249
253
253
252
252
251
252
253
247
249
248
146
66
65
127
252
246
253
246
249
254
252
254
255
255
252
254
251
250
254
248
250
243
157
71
77
79
78
75
77
80
76
76
76
76
76
76
76
76
76
76
76
76
76
76
76
76
75
75
75
68
126
241
248
249
254
253
253
253
252
252
253
249
251
242
86
76
54
181
252
249
253
248
250
254
254
254
255
255
250
254
251
250
254
250
251
246
193
75
75
80
75
74
78
82
76
76
76
76
76
76
76
76
76
76
76
76
76
76
76
76
75
75
74
68
92
223
249
251
253
254
254
253
252
252
255
252
253
220
62
77
56
212
250
252
253
251
252
253
254
253
255
255
249
253
251
251
253
252
252
249
223
97
74
80
74
74
80
80
76
76
76
76
76
76
76
76
76
76
76
76
76
76
76
76
76
76
75
72
73
195
248
251
252
255
254
253
252
252
253
254
253
179
66
64
83
231
244
254
254
254
254
253
253
253
255
255
247
252
252
251
253
254
253
252
240
130
73
79
74
74
77
78
76
76
76
76
76
76
76
76
76
76
76
76
76
76
76
76
75
77
77
75
69
155
246
250
251
254
253
253
252
252
253
252
249
131
66
54
127
245
245
253
254
252
252
254
252
252
255
255
246
252
252
252
252
252
253
253
248
164
71
78
75
78
74
77
76
76
76
76
76
76
76
76
76
76
76
76
76
76
76
76
75
75
76
74
72
109
242
248
250
254
253
254
253
253
252
250
236
95
62
53
167
250
250
250
254
249
250
254
251
251
255
255
246
251
253
252
252
251
253
251
253
185
72
77
75
81
72
76
76
76
76
76
76
76
76
76
76
76
76
76
76
76
76
76
73
72
75
74
77
80
233
247
249
254
253
254
254
254
253
249
218
81
59
59
184
252
252
249
254
248
248
255
250
251
255
255
246
251
253
253
252
250
253
250
248
219
88
79
78
80
74
81
76
76
76
76
76
76
76
76
77
77
76
75
74
74
74
74
73
70
68
72
77
60
205
238
251
245
253
254
252
250
253
246
169
64
62
83
232
251
252
248
253
248
248
254
250
251
255
255
248
252
254
253
251
250
253
250
247
233
100
78
77
77
79
78
76
76
76
76
76
76
76
76
76
76
76
75
74
73
73
73
74
69
67
70
77
68
159
249
251
253
254
254
253
252
251
249
148
60
57
104
242
248
253
247
253
249
248
253
251
251
255
255
249
252
254
253
252
251
253
250
247
245
132
73
76
75
82
75
76
76
76
76
76
76
76
76
76
75
74
73
73
72
72
72
72
67
66
67
74
76
99
244
246
253
244
251
250
250
242
251
114
56
52
143
251
245
253
245
252
250
248
252
252
251
255
255
252
252
253
253
252
252
254
251
252
247
179
65
77
77
80
74
75
75
75
75
75
76
75
75
74
73
74
73
72
71
71
71
72
64
68
65
69
70
68
226
248
252
249
253
250
249
248
238
80
55
52
190
252
248
254
247
251
252
249
251
253
252
255
255
253
253
253
253
253
253
254
253
254
246
219
70
80
79
76
73
75
75
75
75
75
75
75
75
73
73
72
72
70
70
69
69
70
64
69
64
63
60
68
184
245
247
249
253
249
247
248
196
59
56
65
228
252
252
253
250
250
253
250
250
253
252
255
255
251
254
252
253
253
254
254
254
252
244
242
93
80
79
75
74
75
75
75
75
75
75
75
75
72
72
71
70
70
69
69
68
67
63
67
63
58
57
72
130
245
248
247
253
244
245
247
159
55
57
96
247
249
252
252
253
250
251
251
249
252
253
